# xmcd CD database file
#
# Track frame offsets:
#	150
#	9845
#	30000
#	40808
#	51227
#	71728
#	89534
#	108482
#	125694
#	140408
#	160029
#	180816
#	196289
#	215914
#
# Disc length: 3196 seconds
#
# Revision: 0
# Processed by: cddbd v1.5.1PL0 Copyright (c) Steve Scherf et al.
# Submitted via: CDex 1.50
#
DISCID=b80c7a0e
DTITLE=John Gerighty - I believe
DYEAR=1900
DGENRE=New Age
TTITLE0=Fiesta
TTITLE1=A Still Small Voice
TTITLE2=France
TTITLE3=Gavotte
TTITLE4=Transfiguration
TTITLE5=Bethany
TTITLE6=Gethsemane
TTITLE7=The Cross
TTITLE8=O Haupt voll Blut und Wunden
TTITLE9=New Beginnings
TTITLE10=At Day's End
TTITLE11=The Longing
TTITLE12=Dear Loard and Father Of Mankind
TTITLE13=End Piece
EXTD=
EXTT0=
EXTT1=
EXTT2=
EXTT3=
EXTT4=
EXTT5=
EXTT6=
EXTT7=
EXTT8=
EXTT9=
EXTT10=
EXTT11=
EXTT12=
EXTT13=
PLAYORDER=
